# xmcd
#
# Track frame offsets:
#	150
#	11478
#	27699
#	41030
#	57436
#	71963
#	91855
#	103853
#	119692
#	133694
#	146571
#
# Disc length: 2165 seconds
#
# Revision: 1
# Processed by: cddbd v1.5.1PL0 Copyright (c) Steve Scherf et al.
# Submitted via: audiograbber 1.83.01
#
DISCID=a808730b
DTITLE=Billy Burnette - All Night Long
DYEAR=1999
DGENRE=Rockabilly
TTITLE0=All Night Long
TTITLE1=Memphis Blues
TTITLE2=Burnin' Up
TTITLE3=Ride This Train
TTITLE4=Ain't Got The Heart
TTITLE5=Good Kind Of Blues
TTITLE6=Need Ya Baby
TTITLE7=The Mailman
TTITLE8=Goes To Show
TTITLE9=I Got Busted
TTITLE10=Today Is Elvis' Birthday
EXTD=
EXTT0=
EXTT1=
EXTT2=
EXTT3=
EXTT4=
EXTT5=
EXTT6=
EXTT7=
EXTT8=
EXTT9=
EXTT10=
PLAYORDER=
